<svg xmlns="http://www.w3.org/2000/svg" width="73.518" height="73.516" viewBox="0 0 73.518 73.516">
  <path id="Combined_shape_2475" data-name="Combined shape 2475" d="M52.292,73.516H21.225A21.226,21.226,0,0,1,0,52.289V21.225A21.224,21.224,0,0,1,21.225,0H52.292A21.224,21.224,0,0,1,73.517,21.225V52.289A21.226,21.226,0,0,1,52.292,73.516ZM37.562,6.367c-8.494,0-17.023.381-17.108.385A13.523,13.523,0,0,0,6.946,20.259c0,.087-.193,8.828-.193,17.174,0,7.769.191,15.36.193,15.436A13.524,13.524,0,0,0,20.454,66.377c.084,0,8.513.385,16.723.385,7.926,0,15.809-.381,15.887-.385A13.523,13.523,0,0,0,66.571,52.869c0-.076.385-7.658.385-15.436,0-8.343-.381-17.087-.385-17.174A13.522,13.522,0,0,0,53.064,6.752C52.986,6.748,45.156,6.367,37.562,6.367Zm-.8,49.4A19.006,19.006,0,1,1,50.2,50.2,18.883,18.883,0,0,1,36.759,55.764Zm0-31.453A12.253,12.253,0,1,0,49.012,36.564,12.267,12.267,0,0,0,36.759,24.311Zm19.584-2.894a4.438,4.438,0,1,1,4.439-4.439A4.443,4.443,0,0,1,56.343,21.417Z" transform="translate(-0.001 0)" fill="#c1c1c1"/>
</svg>
