<svg xmlns="http://www.w3.org/2000/svg" width="42.378" height="55.944" viewBox="0 0 42.378 55.944">
  <path id="pinterest" d="M2.327,25.6A20.9,20.9,0,0,0,3.4,29.228,9.812,9.812,0,0,0,5.423,32.4a6.745,6.745,0,0,0,3,1.882,5.616,5.616,0,0,0,.563.1q.728,0,1.225-1.512a8.306,8.306,0,0,0,.5-2.455A2.567,2.567,0,0,0,10.29,29.4q-.414-.724-.894-1.531a10.746,10.746,0,0,1-1.308-5.043,14.814,14.814,0,0,1,4.436-11.043A15.155,15.155,0,0,1,23.582,7.425a13.64,13.64,0,0,1,9.452,3.243q3.626,3.247,3.625,9.062a27.717,27.717,0,0,1-.215,3.346,37.387,37.387,0,0,1-.662,3.732,18.63,18.63,0,0,1-1.258,3.714,19.443,19.443,0,0,1-1.854,3.194A7.652,7.652,0,0,1,30.071,36a7,7,0,0,1-3.377.841,5.091,5.091,0,0,1-3.609-1.4,4.609,4.609,0,0,1-1.49-3.513,21.5,21.5,0,0,1,1.457-6.288,21.562,21.562,0,0,0,1.457-6.421,5.227,5.227,0,0,0-1.126-3.445,3.853,3.853,0,0,0-3.145-1.363,5.16,5.16,0,0,0-4.37,2.454,8.969,8.969,0,0,0-1.722,5.246A13.069,13.069,0,0,0,15.206,27.8q-.232,1.008-1.722,6.826t-2.2,9.665a38.529,38.529,0,0,0-.712,6.942q0,1.042.5,6.322l.3.336.464-.168q1.224-1.684,2.053-2.909A23.954,23.954,0,0,0,15.4,52.207q.7-1.378,1.059-2.1a16,16,0,0,0,.861-2.387q.5-1.663.679-2.388t.778-3.193q.6-2.471.927-3.782a6.685,6.685,0,0,0,3.178,2.959,10.166,10.166,0,0,0,4.47,1.075A14.945,14.945,0,0,0,33.614,41.1a14.375,14.375,0,0,0,4.8-3.463,20.753,20.753,0,0,0,3.311-5.026,25.8,25.8,0,0,0,1.987-5.951,31.654,31.654,0,0,0,.629-6.32,17.142,17.142,0,0,0-2.814-9.649A18.475,18.475,0,0,0,34.21,4.181a21.579,21.579,0,0,0-9.734-2.236,25.785,25.785,0,0,0-6.688.874,22.923,22.923,0,0,0-6.125,2.623A23.291,23.291,0,0,0,6.631,9.576a17.6,17.6,0,0,0-3.427,5.6,18.8,18.8,0,0,0-1.242,6.841A18.326,18.326,0,0,0,2.327,25.6Z" transform="translate(-1.963 -1.945)" fill="#c1c1c1"/>
</svg>
