<svg xmlns="http://www.w3.org/2000/svg" width="17.729" height="25.735" viewBox="0 0 17.729 25.735">
  <path id="Facebook_Places" d="M84.215,6.405A8.016,8.016,0,0,0,83.8,5.376,8.817,8.817,0,0,0,66.9,7.983v1.1c0,.046.016.458.038.663.321,2.562,2.342,5.284,3.852,7.846,1.624,2.745,3.31,5.445,4.979,8.144,1.03-1.761,2.056-3.546,3.062-5.261.274-.5.593-1.007.867-1.487.183-.32.533-.64.692-.938,1.624-2.974,4.238-5.97,4.238-8.921V7.915A9.131,9.131,0,0,0,84.215,6.405Zm-8.494,5.513a3.146,3.146,0,0,1-3.012-2.15,2.983,2.983,0,0,1-.085-.8V8.258a2.979,2.979,0,0,1,3.2-2.928,3.24,3.24,0,0,1,3.246,3.294A3.323,3.323,0,0,1,75.721,11.918Z" transform="translate(-66.905)"/>
</svg>
