<svg xmlns="http://www.w3.org/2000/svg" width="29.638" height="23.71" viewBox="0 0 29.638 23.71">
  <path id="Path_2136" data-name="Path 2136" d="M14.819,18.891a4.446,4.446,0,1,0,4.446,4.446A4.446,4.446,0,0,0,14.819,18.891Zm11.855-4.446H23.117a1.32,1.32,0,0,1-1.17-.843l-.919-2.759A1.321,1.321,0,0,0,19.857,10H9.78a1.32,1.32,0,0,0-1.17.843L7.691,13.6a1.321,1.321,0,0,1-1.17.843H2.964A2.972,2.972,0,0,0,0,17.409V30.746A2.972,2.972,0,0,0,2.964,33.71h23.71a2.972,2.972,0,0,0,2.964-2.964V17.409A2.972,2.972,0,0,0,26.674,14.446Zm-11.855,16.3a7.409,7.409,0,1,1,7.409-7.409A7.409,7.409,0,0,1,14.819,30.746ZM25.637,19.482a1.037,1.037,0,1,1,1.037-1.037A1.037,1.037,0,0,1,25.637,19.482Z" transform="translate(0 -10)"/>
</svg>
