<svg xmlns="http://www.w3.org/2000/svg" width="238.954" height="238.954" viewBox="0 0 238.954 238.954">
  <path id="user" d="M238.954,119.477A119.477,119.477,0,1,0,38.78,207.49l-.113.1,3.875,3.267c.252.213.526.387.778.6,2.059,1.707,4.193,3.328,6.365,4.9.7.508,1.408,1.017,2.125,1.512q3.48,2.4,7.134,4.553c.53.313,1.064.617,1.6.921,2.663,1.516,5.383,2.946,8.168,4.258.2.1.413.182.617.278a118.4,118.4,0,0,0,28.9,9.145l.8.143c3.146.543,6.326.978,9.545,1.269.391.035.782.056,1.177.091,3.206.265,6.447.434,9.732.434,3.254,0,6.465-.169,9.654-.426.4-.035.808-.056,1.212-.091q4.79-.437,9.463-1.247c.269-.048.543-.1.812-.148a118.4,118.4,0,0,0,28.488-8.928c.33-.152.665-.3.995-.452q4.021-1.89,7.868-4.067.958-.541,1.907-1.1c2.337-1.377,4.636-2.815,6.869-4.345.8-.547,1.59-1.125,2.385-1.7,1.907-1.373,3.78-2.789,5.6-4.271.4-.326.839-.608,1.234-.943l3.975-3.319-.117-.1A119.168,119.168,0,0,0,238.954,119.477Zm-230.265,0A110.788,110.788,0,1,1,192.949,202.3a32.56,32.56,0,0,0-3.88-2.333l-36.786-18.391a9.63,9.63,0,0,1-5.353-8.659V160.069c.852-1.051,1.751-2.242,2.681-3.55a88.536,88.536,0,0,0,11.366-22.258,15.768,15.768,0,0,0,9.059-14.289v-15.4a15.808,15.808,0,0,0-3.854-10.292V74c.226-2.259,1.025-14.98-8.181-25.477-8.007-9.141-20.967-13.768-38.524-13.768S88.96,39.384,80.953,48.521C71.747,59.017,72.546,71.747,72.772,74V94.274a15.83,15.83,0,0,0-3.854,10.292v15.4a15.8,15.8,0,0,0,5.822,12.256,81.636,81.636,0,0,0,13.438,27.758v12.573a9.691,9.691,0,0,1-5.048,8.507L48.777,199.8a31.4,31.4,0,0,0-3.267,2.068A110.522,110.522,0,0,1,8.689,119.477Z"/>
</svg>
