<svg xmlns="http://www.w3.org/2000/svg" width="65.967" height="53.335" viewBox="0 0 65.967 53.335">
  <path id="twitter" d="M59.349,9.757a13.074,13.074,0,0,0,5.944-7.415,26.614,26.614,0,0,1-8.581,3.249A13.6,13.6,0,0,0,37.27,5.278,12.941,12.941,0,0,0,33.314,14.8a14.862,14.862,0,0,0,.335,3.083A37.779,37.779,0,0,1,18.1,13.737,38.264,38.264,0,0,1,5.772,3.8,13.138,13.138,0,0,0,3.93,10.591a13.065,13.065,0,0,0,1.633,6.417,13.457,13.457,0,0,0,4.4,4.791,13.438,13.438,0,0,1-6.111-1.708v.166a12.971,12.971,0,0,0,3.077,8.564,13.312,13.312,0,0,0,7.765,4.646,14.077,14.077,0,0,1-3.558.458,17.213,17.213,0,0,1-2.553-.208A13.542,13.542,0,0,0,21.217,43.05,26.548,26.548,0,0,1,4.433,48.8a29.058,29.058,0,0,1-3.265-.166,37.666,37.666,0,0,0,20.761,6.042A39.682,39.682,0,0,0,35.449,52.4a34.433,34.433,0,0,0,10.8-6.084,40.762,40.762,0,0,0,7.723-8.771A39.007,39.007,0,0,0,58.805,27.2,38.085,38.085,0,0,0,60.4,16.383q0-1.167-.042-1.751a28.269,28.269,0,0,0,6.781-6.958,26.956,26.956,0,0,1-7.785,2.082Z" transform="translate(-1.168 -1.341)" fill="#c1c1c1"/>
</svg>
