<svg xmlns="http://www.w3.org/2000/svg" width="1084.275" height="1159.966" viewBox="0 0 1084.275 1159.966">
  <path id="Path_2284" data-name="Path 2284" d="M1083.945,423.969a3.067,3.067,0,0,0-2.331-.92,1.164,1.164,0,0,1-.521-.276c-.153-1.564-.491-3.067-.767-4.57a16.807,16.807,0,0,1,0-10.089,5.612,5.612,0,0,0-1.1-7.3,9.844,9.844,0,0,0-7.789-1.748,10.059,10.059,0,0,0-6.563,4.815,2.73,2.73,0,0,1-.8.613,28.156,28.156,0,0,1-7.881,3.067,33.733,33.733,0,0,0-8.28,3.067,12.574,12.574,0,0,1-9.2.705,10.825,10.825,0,0,0-7.728,1.9c-3.68,2.024-6.133,2.361-8.4,1.135a4.938,4.938,0,0,0-5.428.215l-3.649,2.453c-1.963,1.349-3.987,2.729-6.133,3.925s-3.067,1.779-5.4.736a12.267,12.267,0,0,0-9.967-.92,51,51,0,0,0-6.869,3.895l-.583.368A14.291,14.291,0,0,1,974,428.109a19.228,19.228,0,0,1-13.034-9.906c-.337-.552-.644-1.1-.92-1.625a13.063,13.063,0,0,0-6.624-6.808,7.3,7.3,0,0,0-1.963-.46,6.932,6.932,0,0,1,2.331-1.38,4.232,4.232,0,0,0,3.619-4.661c0-5.244-6.134-15.15-10.918-17.143a3.067,3.067,0,0,0-.889-.368,8.556,8.556,0,0,1-7.176-5.827,7.636,7.636,0,0,0-2.116-3.067,10.9,10.9,0,0,1-.828-.859,18.156,18.156,0,0,0-5.459-4.14,12.267,12.267,0,0,1-5.367-4.6c-1.441-2.7-3.4-6.44-7.513-7.207a18.68,18.68,0,0,1-6.41-3.067,30.142,30.142,0,0,0-4.845-2.637s-.153,0-.429-.613-.215-.46-.337-.705c-1.748-3.067-5.489-5.949-8.955-4.784a2.484,2.484,0,0,1-3.067-.889h0a14.135,14.135,0,0,0-2.883-5.305,9.354,9.354,0,0,1-2.331-4.539A64.03,64.03,0,0,0,883.564,322v-.245c-2.637-7.054-5.582-13.708-12.666-17.7l-.46-.276a6.379,6.379,0,0,1-3.343-3.067,10.489,10.489,0,0,0-7.33-5.244c-1.84-.429-2.453-1.135-2.791-2.177s-.613-1.656-.92-2.453a29.5,29.5,0,0,1-2.208-7.882c-.245-3.067-.705-5.949-1.2-8.832a63.044,63.044,0,0,1-1.227-14.506,4.784,4.784,0,0,0-1.288-3.465c-2.545-3.251-5.183-6.624-4.723-10.979a4.324,4.324,0,0,0-2.637-4.385,23.429,23.429,0,0,1-5.367-3.987,19.994,19.994,0,0,0-8.955-5.459l-.184-.245a4.542,4.542,0,0,0-.767-.889,13.647,13.647,0,0,1-3.4-5.551c-.368-.889-.736-1.779-1.2-2.668v-3.8a2.76,2.76,0,0,0,3.067.215c1.1-.675,2.085-2.024.583-4.539v-.184a6.654,6.654,0,0,0-2.239-2.515,24.78,24.78,0,0,1-9.384-9.814c-.368-.705-.675-1.472-1.012-2.239a15.949,15.949,0,0,0-4.815-7.145,40.85,40.85,0,0,0-8.28-13.248l-.705-.859a47.1,47.1,0,0,0-2.331-4.845,29.376,29.376,0,0,1-3.22-8.1,8.649,8.649,0,0,0-2.821-5.489l-.552-.46.307-.613v-.307a4.079,4.079,0,0,0,.153-3.373,6.808,6.808,0,0,0,6.5.184,6.134,6.134,0,0,0,2.668-6.133,47.714,47.714,0,0,1,2.637-15.334l.491-1.717a23.061,23.061,0,0,0-4.569-21.252,33.46,33.46,0,0,0-5.213-11.9h0a3.282,3.282,0,0,0-.859-2.545,3.067,3.067,0,0,0-2.453-.736h-.521a8.065,8.065,0,0,0-4.171,1.012,6.287,6.287,0,0,1-7.207.705,6.41,6.41,0,0,0-7.544.644,9.205,9.205,0,0,0-1.319,1.2c-.705.705-1.043,1.012-1.38,1.043a11.87,11.87,0,0,0-5.214-3.8,8.586,8.586,0,0,1-4.017-2.883,2.515,2.515,0,0,0-1.994-1.135,3.527,3.527,0,0,0-2.76.644c-1.227,1.165-2.116.92-4.293,0a16.3,16.3,0,0,0-1.687-.705,8.771,8.771,0,0,0-5.459-.337,60.476,60.476,0,0,0-18.124,8.679l-1.411.92c-2.515,2.055-4.661,3.833-7.759,3.067a11.531,11.531,0,0,0-8.341-3.067,14.966,14.966,0,0,0-2.361,0,5.06,5.06,0,0,1-3.067-.337,17.45,17.45,0,0,0-5.121-1.963,16.928,16.928,0,0,1-4.324-1.564,26.9,26.9,0,0,0-11.746-2.545,35.581,35.581,0,0,1-4.692-.429,15.333,15.333,0,0,0-11.316.368c-1.717.644-1.871.583-2.515-.981-2.821-6.931-4.876-7.391-11.838-6.133a6.133,6.133,0,0,1-5.121-.583,11.592,11.592,0,0,0-8-2.392c-2.423,0-3.465-.859-3.68-3.067v-.46c0-.889,0-3.251-2.453-3.619a24.043,24.043,0,0,1-4.968-1.533,27.417,27.417,0,0,0-5.4-1.687,32.875,32.875,0,0,0-16.07,1.012A49.65,49.65,0,0,0,589.189,82.8a13.923,13.923,0,0,0-4.171,18.431c1.993,3.067,1.349,4.753-.767,7.268-6.409,7.79-10.274,8.679-16.53,3.895l-.245-.184a44.958,44.958,0,0,0-9.2-5.888,53.945,53.945,0,0,0-20.884-5.949c-9.2-.184-12.911-3.68-14.2-12.942-.337-2.269-1.043-6.992-6.624-6.655a8.5,8.5,0,0,1-2.791-.583l-1.687-.491a16.436,16.436,0,0,1-4.661-2.239,15.916,15.916,0,0,0-7.422-3.067,19.014,19.014,0,0,1-4.14-.92,13,13,0,0,0-9.814-.184,9.2,9.2,0,0,1-9.415-1.595,22.3,22.3,0,0,0-7.421-3.22l-1.165-.245c-2.055-.4-3.772-.8-3.956-1.84a27.6,27.6,0,0,0-.889-3.588,19.045,19.045,0,0,1-.828-3.68c-.245-2.607-1.533-3.956-3.833-3.956h-.368a3.281,3.281,0,0,0-3.895,3.128.809.809,0,0,1-.859.521c-1.625-.215-2.729-1.349-3.772-3.833-.184-.429-.675-1.595,1.38-2.515a27.294,27.294,0,0,0,11.715-9.906,12.083,12.083,0,0,0,2.055-9.691,9.2,9.2,0,0,0-5.428-8.1,3.251,3.251,0,0,1-1.288-2.453,2.791,2.791,0,0,1,.215-1.871,12.6,12.6,0,0,0,5.643-4.6,21.064,21.064,0,0,1,1.717-1.963,5.857,5.857,0,0,0,1.625-6.348,4.692,4.692,0,0,0-3.741-3.067,3.465,3.465,0,0,1-1.38-.583,2.147,2.147,0,0,0-3.067,0,2.637,2.637,0,0,0-.368,3.588h0a4.293,4.293,0,0,0-2.545.92l-.245-.859a5.365,5.365,0,0,1-.337-1.656V5.667a3.557,3.557,0,0,0-2.453-4.14c-4.6-1.472-11.378-3.067-16.959,1.319a15.579,15.579,0,0,1-8.955,2.515,30.3,30.3,0,0,0-5.766.8,3.067,3.067,0,0,0-1.319-1.227,8.25,8.25,0,0,0-3.312-1.656,11.29,11.29,0,0,1-1.257-.46,6.133,6.133,0,0,0-4.447-.276,2.821,2.821,0,0,0-1.533,1.84v.368h-.859a15.121,15.121,0,0,0-1.5-.245,11.379,11.379,0,0,1-1.288-.215,4.293,4.293,0,0,0-5.8-2.147l-.215-.552L398.1,3.06l-.368.215a3.71,3.71,0,0,0-1.779,1.717,9.567,9.567,0,0,0-2.116.4,10.611,10.611,0,0,1-3.925.368,3.067,3.067,0,0,0-3.5,1.932,3.067,3.067,0,0,1-1.043,0h-.4a2.147,2.147,0,0,0-1.135-1.625,2.362,2.362,0,0,0-1.687-1.1,3.067,3.067,0,0,0-2.331-.8,54.5,54.5,0,0,0-17.051-1.073,1.656,1.656,0,0,0-1.165.675,7.881,7.881,0,0,1-5.643.245,5.367,5.367,0,0,0-6.808,1.533l-.337.368-.368.153-.46.184a31.311,31.311,0,0,0-10.642-.092,34.563,34.563,0,0,1-7.82.245H329.1a5,5,0,0,0-4.293.828,3.067,3.067,0,0,0-1.779,1.043l-1.012.031a6.134,6.134,0,0,0-3.373,1.288l-.736.184a6.471,6.471,0,0,0-2.76,1.1,3.067,3.067,0,0,0-1.595.767,3.312,3.312,0,0,0-2.116,1.411,3.312,3.312,0,0,0-1.441,2.177l-.245.123a3.282,3.282,0,0,1-1.1.8,4.876,4.876,0,0,0-3.5-1.779h0a5.459,5.459,0,0,0-3.8,2.085c-.245.245-.767.276-1.595.276H298.4a4.232,4.232,0,0,0-4.2,1.5h0a3.312,3.312,0,0,0-2.177,1.441,3.312,3.312,0,0,0-1.441,2.177l-.4.4V22.5a3.251,3.251,0,0,1-.859.153,4.171,4.171,0,0,0-3.22,1.533h0a3.067,3.067,0,0,0-1.84,1.012,9.875,9.875,0,0,1-4.6-.245,16.652,16.652,0,0,0-4.14-.4c-3.067,0-3.833-.675-4.324-3.22a2.852,2.852,0,0,0-2.515-2.515,2.76,2.76,0,0,0-2.791,1.687c-.307.828-.828,1.043-2.208,1.411l-1.319.4a7.268,7.268,0,0,0-4.447-1.1h-4.6a25.178,25.178,0,0,1-8.342-.613l-1.288-1.564c-1.2-1.441-2.392-2.913-3.527-4.385a3.618,3.618,0,0,1-.245-1.533A4.232,4.232,0,0,0,237.1,8.58a8.158,8.158,0,0,0-4.324.276,6.9,6.9,0,0,1-2.76.368,2.76,2.76,0,0,0-3.373,1.625,77.377,77.377,0,0,1-5.827,10.642c-1.595,2.545-3.22,5.183-4.631,7.943a15.088,15.088,0,0,0-5.4,6.869c-.337.245-.736.491-1.165.767a9.384,9.384,0,0,0-2.883,2.361,14.169,14.169,0,0,0-4.968,1.809,19.5,19.5,0,0,1-2.361,1.1c-1.748.613-3.619,1.135-5.459,1.625-5.551,1.472-11.286,3.067-15.487,8.158a14.077,14.077,0,0,1-3.067,2.545,11.347,11.347,0,0,0-5.52,6.133l-.337,1.165a27.049,27.049,0,0,1-1.5,4.385L162.3,72.092a16.192,16.192,0,0,0-5.091,10.734c-.215,1.135-.429,2.208-.705,3.251v.4a8.526,8.526,0,0,0,.521,7.728,2.852,2.852,0,0,1,0,3.864c-1.2,1.411-2.361,2.883-3.527,4.355-4.723,5.673-9.047,11.071-15.855,14.138l-1.043.429a14.751,14.751,0,0,0-5.213,3.067,31.373,31.373,0,0,1-20.332,8.526,15.332,15.332,0,0,1-2.055,0c-2.76-.153-6.931-.4-8.74,4.2l-1.319,1.349a67.468,67.468,0,0,0-9.016,14.874l-1.932.951a58.085,58.085,0,0,1-5.489,2.484l-1.073.368c-3.067,1.073-6.839,2.423-7.789,7.237a3.894,3.894,0,0,1-.613.92,8.464,8.464,0,0,0-.951,1.38,42.93,42.93,0,0,1-2.269,3.741A20.271,20.271,0,0,0,65.391,177.5a6.685,6.685,0,0,1-3.8,5.612,35.543,35.543,0,0,0-7.36,5.459,35.663,35.663,0,0,1-5.949,4.569l-1.748,1.656a5,5,0,0,0-1.993,3.465,16.285,16.285,0,0,1-3.067,6.133,23.982,23.982,0,0,0-3.067,5.551,3.649,3.649,0,0,0-1.779,2.883l-.552.8c-.675.981-1.349,1.963-1.993,3.067a6.132,6.132,0,0,0-.337,1.073c0,.215-.184.552,0,.552h-.184a6.379,6.379,0,0,0-6.133,3.925l-.184.307a52.625,52.625,0,0,0-5.765,14.812c-.368,1.349-.736,2.7-1.135,4.048a2.645,2.645,0,0,1-.307.859,4.876,4.876,0,0,0-.337,4.048,3.067,3.067,0,0,0,2.085,1.533,3.067,3.067,0,0,0,2.607-.4,2.792,2.792,0,0,0,.583-.552c.276,2.024,1.043,4.845,3.067,5.183.951,0,1.1.491,1.533,1.472a11.251,11.251,0,0,0,.521,1.043,2.4,2.4,0,0,0,.184,1.135,8.433,8.433,0,0,1,.184,2.7c0,.583-.4.859-1.227,1.441A4.477,4.477,0,0,0,27,262.935a4.937,4.937,0,0,0-.705,3.588,7.238,7.238,0,0,1,0,.828,5.183,5.183,0,0,0-.429,7.329A10.028,10.028,0,0,1,27,276.429a12.755,12.755,0,0,0,1.441,2.208,52.473,52.473,0,0,0,.583,6.594,36.8,36.8,0,0,1,.337,8,14.444,14.444,0,0,0-1.533,6.409,3.067,3.067,0,0,0-.705,2.423h0a27.875,27.875,0,0,0-3.527,6.961,2.576,2.576,0,0,0-.951,1.656,2.76,2.76,0,0,0-.8,1.748,6.134,6.134,0,0,0-1.441,2.76,3.067,3.067,0,0,0-.859,2.361,3.067,3.067,0,0,0-.736,2.453,7.115,7.115,0,0,0-1.533,4.14A25.116,25.116,0,0,1,2.645,345.154H2.369a2.852,2.852,0,0,0-2.361,3.067,3.8,3.8,0,0,0,1.319,2.7,3.066,3.066,0,0,0,2.453.675c.675,0,.951,0,1.472,1.717a21.284,21.284,0,0,0,1.993,4.232,9.445,9.445,0,0,1,1.963,6.808L8.9,365.977l1.625.337h.153v.583a4.907,4.907,0,0,0,0,2.055,2.637,2.637,0,0,0-2.085.705,2.239,2.239,0,0,0-.644,1.625h0a5,5,0,0,0-.4,1.625v.276a68.3,68.3,0,0,1-.644,9.844c-.429,2.607-1.564,9.538,5.459,12.267a2.177,2.177,0,0,1,0,.613v.368a6.348,6.348,0,0,0,2.147,4.661,6.347,6.347,0,0,0-2.239.828,3.067,3.067,0,0,0-1.84,2.392,2.852,2.852,0,0,0,.337,1.717,2.576,2.576,0,0,0-1.748,2.484c0,1.288.368,2.852,3.067,3.067h.184a1.932,1.932,0,0,0,.8.583,3.925,3.925,0,0,0,1.043,3.067,4.907,4.907,0,0,0,4.661.521h.583a7.574,7.574,0,0,0,2.852-1.38,3.9,3.9,0,0,1,2.147-.951,3.312,3.312,0,0,0,2.331-1.257,7.759,7.759,0,0,0,3.067,4.171,5.182,5.182,0,0,1,2.147,2.637,2.055,2.055,0,0,0,1.5,1.595,3.067,3.067,0,0,0,3.067-1.073l.153-.184a11.9,11.9,0,0,1,.736,4.661,1.717,1.717,0,0,0,.767,1.595,19.165,19.165,0,0,1,1.993,2.484,13.585,13.585,0,0,0,5.428,5.03,15.119,15.119,0,0,1,4.109,3.343c.644.644,1.288,1.288,1.932,1.871h0a2.821,2.821,0,0,0-1.932,1.135,3.067,3.067,0,0,0-.583,2.361l.368,1.687,1.687-.429c2.883-.705,3.4.307,4.692,3.649l.583,1.5a9.936,9.936,0,0,1,.491,3.8,13.034,13.034,0,0,0,.583,4.692,2.361,2.361,0,0,0-1.012.981,3.067,3.067,0,0,0,.705,3.465c.613.521.828.859-.184,3.067l-1.656,3.588,3.741-1.288a9.784,9.784,0,0,1,3.067-.736,5.919,5.919,0,0,1-.337,1.779,2.852,2.852,0,0,0,.245,2.361,4.847,4.847,0,0,0-1.595.429l-1.257.583.4,1.779c.215,1.043.675,3.251,3.067,3.5A13.708,13.708,0,0,1,68,478.22a29.469,29.469,0,0,0,3.067,1.687c.981.429,1.963.8,3.067,1.165a19.658,19.658,0,0,1,9.2,5.4,29.256,29.256,0,0,0,10.734,8.495c0,2.637,1.564,4.293,5.029,5a12.267,12.267,0,0,1,5.919,3.741c.705.644,1.38,1.288,2.147,1.9a50.811,50.811,0,0,1,5.919,6.133,44.96,44.96,0,0,0,8.25,7.82,102.246,102.246,0,0,0,14.628,7.82c2.76,1.288,5.581,2.607,8.311,4.048a7.79,7.79,0,0,0,6.9-.276L153.9,529.8a61.883,61.883,0,0,1,9.844-4.171A45.453,45.453,0,0,0,169.6,523.3a31.973,31.973,0,0,1,6.532-2.423,124.463,124.463,0,0,1,15.763-1.84c2.607-.184,5.305-.4,7.943-.675a48.425,48.425,0,0,1,15.334,1.656l3.956.828c.951.184,1.932.337,3.067.46a16.162,16.162,0,0,1,8.679,3.067A6.287,6.287,0,0,0,237,525.54h.644a10.978,10.978,0,0,0,4.631-2.331,8.4,8.4,0,0,1,3.373-1.809,52.319,52.319,0,0,0,16.039-5.029l.583-.337c6.133-3.4,11.623-6.594,18.4-5.7a4.784,4.784,0,0,0,6.133-4.293,1.754,1.754,0,0,1,.92-1.564,29.746,29.746,0,0,0,5.98-1.227,28.036,28.036,0,0,1,4.753-1.043l2.055-.184a202.613,202.613,0,0,1,31.189-1.411,14.382,14.382,0,0,1,10.734,4.293,54.065,54.065,0,0,1,10.826,19.627,14.628,14.628,0,0,0,11.378,10.488,41.431,41.431,0,0,0,12.267-.736,58.274,58.274,0,0,1,7.882-.92,21.287,21.287,0,0,0,5.428-1.043,17.019,17.019,0,0,1,4.937-.92h1.2a8.1,8.1,0,0,0,5.428-1.012,3.925,3.925,0,0,0,1.411,1.441,4.846,4.846,0,0,0,4.293,0h0a8.741,8.741,0,0,1,.552,1.963,6.655,6.655,0,0,0,3.067,5.029,12.666,12.666,0,0,0,7.605,2.239,7.912,7.912,0,0,0,2.791,6.808,5.244,5.244,0,0,1,1.932,5.827,59.127,59.127,0,0,0-1.809,15.058,5.551,5.551,0,0,1-.705,3.281c-.675,1.012-1.349,1.993-2.055,3.067s-1.932,2.791-2.852,4.263l-.245.368a4.723,4.723,0,0,0-1.012,4.477,4.018,4.018,0,0,0,3.067,1.932,6.656,6.656,0,0,0,.245,2.668,3.4,3.4,0,0,0-3.833,2.637,7.452,7.452,0,0,0,.491,4.846h-.644v3.005a27.317,27.317,0,0,1,0,2.913c-.337,3.895-1.227,6.318-2.637,7.268a5.459,5.459,0,0,1-4.723,0l-1.533-.491-.552,1.533a6.87,6.87,0,0,0,1.073,6.409,57.593,57.593,0,0,1,6.532,12.267,42.567,42.567,0,0,0,9.2,14.23l.92,1.073a51.1,51.1,0,0,0,6.778,6.133,56,56,0,0,1,5.612,5.029q3.726,4,7.36,8.1c3.067,3.557,6.532,7.268,9.936,10.826a20.7,20.7,0,0,1,3.067,4.968,29.376,29.376,0,0,0,3.067,5.029,10.642,10.642,0,0,1,2.269,4.324,3.409,3.409,0,0,1-.429.644,3.067,3.067,0,0,0,0,4.232,10.427,10.427,0,0,1,2.668,6.134,26.13,26.13,0,0,0,.92,3.772,17.634,17.634,0,0,0,3.557,5.52,14.533,14.533,0,0,1,2.821,4.263l.859,2.453a95.248,95.248,0,0,0,8.894,20.179,5.336,5.336,0,0,1,.276,3.067,12.267,12.267,0,0,0-5.305,7.329,9.2,9.2,0,0,0,2.024,6.747h0a42.534,42.534,0,0,0,7.115,16.1,15.487,15.487,0,0,1,3.4,11.746l-.215,1.165a21.815,21.815,0,0,0-.521,4.631c.215,7.606-1.2,10.3-7.575,14.414-4.324,2.791-4.232,4.6-4.2,5.214,0,2.055-.951,3.067-2.791,4.477a16.377,16.377,0,0,0-2.239,2.055l-.307.215a3.067,3.067,0,0,0-1.656,3.067,10.241,10.241,0,0,1-.951,4.723,13.311,13.311,0,0,0-1.073,4.631,41.74,41.74,0,0,1-2.484,12.7,56.519,56.519,0,0,0-2.453,10.366v.245c0,.736-.215,1.993-.705,2.177A5.122,5.122,0,0,0,456.767,858a2.154,2.154,0,0,0,.184,1.043,17.265,17.265,0,0,0,.521,2.208,10.273,10.273,0,0,1,.521,2.576,3.926,3.926,0,0,0-1.871,5.95v.307a14.812,14.812,0,0,1,.46,9.476,11.717,11.717,0,0,0-.215,4.753,31.158,31.158,0,0,0,9.875,18.707,9.2,9.2,0,0,1,1.595,1.993v.215a163.837,163.837,0,0,1,10.7,19.719c2.515,5.183,5.121,10.55,8.127,15.61l1.656,2.852a73.607,73.607,0,0,0,7.329,11.132l.767.92c3.8,4.447,7.084,8.28,4.324,14.138a4.877,4.877,0,0,0,0,3.251v.644a11.716,11.716,0,0,0,.491,2.423,13.831,13.831,0,0,1,.491,6.593,15.548,15.548,0,0,0,2.055,12.512l.767,1.564a20.547,20.547,0,0,1,2.637,8.832,49.067,49.067,0,0,0,4.753,20.762c0,.276,0,.276,0,.368a24.84,24.84,0,0,0,3.772,13.494l.552,1.073a56.091,56.091,0,0,0,17.45,20.731,2.7,2.7,0,0,1,.583.675,90.93,90.93,0,0,1,8.924,19.719l.981,2.7a64.646,64.646,0,0,0,11.531,20.547,21.222,21.222,0,0,1,4.631,14.567c0,1.472-.337,1.932-.491,2.055a1.841,1.841,0,0,1-1.38,0,3.773,3.773,0,0,0-3.067.49,4.969,4.969,0,0,0-1.564,3.8c0,.245,0,.521,0,.736a6.5,6.5,0,0,0,2.055,5.275c1.165,1.411,1.564,2.024,1.2,3.067a1.871,1.871,0,0,0,.215,1.687,2.577,2.577,0,0,0,2.208.92h.245a2.575,2.575,0,0,1,1.9,1.564,2.453,2.453,0,0,1,0,2.331,8.342,8.342,0,0,0,.184,8.556,4.171,4.171,0,0,0,2.177,2.361,3.179,3.179,0,0,0,4.2-1.963,2.811,2.811,0,0,0,0-.43,6.409,6.409,0,0,0,4.324,2.423h.491c.705.184,1.073.675,1.687,1.595a6.9,6.9,0,0,0,2.208,2.361,16.654,16.654,0,0,0,8.219,3.067,13.219,13.219,0,0,0,8.25-3.772,44.889,44.889,0,0,1,9.936-2.423,25.1,25.1,0,0,1,3.312,0,11.378,11.378,0,0,0,10.58-3.8,5.919,5.919,0,0,1,4.447-2.024,17.641,17.641,0,0,1,5.213.491,24.021,24.021,0,0,0,5,.613,8.311,8.311,0,0,0,3.619-1.073c.981-.491,1.595-.767,2.177-.583,1.441.4,2.883.675,4.293.92a23.037,23.037,0,0,1,7.575,2.3,7.605,7.605,0,0,0,5.305.644,2.576,2.576,0,0,0,1.656-1.35c1.2-2.576,2.208-2.791,5.673-1.227a5.736,5.736,0,0,0,3.067.276,6.7,6.7,0,0,1,.981,0,2.724,2.724,0,0,0,3.005-3.005,2.852,2.852,0,0,1,.859-2.331,1.625,1.625,0,0,1,1.472,0c6.44,2.883,11.592,0,16.131-2.576l1.257-.705a98.942,98.942,0,0,0,12.574-8.74c1.717-1.349,3.435-2.668,5.213-3.956l.245-.184a57.372,57.372,0,0,0,12.7-11.377,16.684,16.684,0,0,1,4.968-4.539c8.618-5,14.046-12.911,19.29-20.578l1.809-2.637a44.281,44.281,0,0,0,3.067-5.275,30.668,30.668,0,0,1,6.777-9.2l1.595-1.349a23.179,23.179,0,0,1,6.134-4.171,18.063,18.063,0,0,0,10.089-13.4,62.191,62.191,0,0,1,3.067-9.476,44.315,44.315,0,0,0,3.833-14.935,23.169,23.169,0,0,1,.491-3.557,17.328,17.328,0,0,0,0-8.556l-.736-2.484a13.123,13.123,0,0,1,4.079-2.883,109.669,109.669,0,0,1,22.755-8.311l.828-.245a21.467,21.467,0,0,0,10.948-8.188c.307-.368.644-.736.981-1.1a6.747,6.747,0,0,0,2.361-6.808,20.088,20.088,0,0,1,2.484-14.23c.184-.4,1.135-2.484,0-3.68s-1.012-1.993-.245-4.171c.184-.552.4-1.1.552-1.717.46-1.656,1.38-5.091-2.914-6.379a.614.614,0,0,1,0-.307,4.324,4.324,0,0,0,3.251-5.52,5.9,5.9,0,0,1,0-1.2s0-.307,0-.46c.46-2.453-.215-3.925-1.993-4.293a2.546,2.546,0,0,0-3.067,1.135c-1.441-1.993-2.116-3.22-1.319-5.4a7.851,7.851,0,0,0-2.423-8.771c-2.208-1.411-2.177-2.116-1.533-5.122v-.307c.613-3.067.828-4.109,3.772-5.183a23.031,23.031,0,0,0,8.894-8.1l.674-.859a9.66,9.66,0,0,1,4.692-3.741,11.132,11.132,0,0,0,8.74-5.091l.951-1.1.981-1.1a62.2,62.2,0,0,1,17.02-15.088c.92-.491,1.84-1.043,2.76-1.595a20.275,20.275,0,0,1,5.643-2.668L870.96,883a47.128,47.128,0,0,0,15.855-5.581,72.764,72.764,0,0,0,13.463-11.623l1.165-1.2c4.876-4.968,9.906-10.09,11.439-17.664a11.9,11.9,0,0,1,.736-2.116,13.682,13.682,0,0,0,1.073-3.527,16.1,16.1,0,0,0-1.932-8.863,14.321,14.321,0,0,1-1.748-6.839,14.765,14.765,0,0,1,.307-2.3,20.674,20.674,0,0,0,.337-5.152,11.222,11.222,0,0,0-1.165-4.477,5.459,5.459,0,0,0,2.637-5.275,46,46,0,0,0-.951-9.722,36.8,36.8,0,0,1-.8-10.488V787.04h.368a3.067,3.067,0,0,0,2.7-.705,2.668,2.668,0,0,0,.705-2.239,4.543,4.543,0,0,1,0-.705c0-.859.552-3.5-2.147-4.048h-.215v-.859c.92-7.636-.521-10.212-7.237-13.156a6.379,6.379,0,0,1-3.742-4.416,33.741,33.741,0,0,1-1.533-6.9,26.463,26.463,0,0,0-3.4-10.948,6.594,6.594,0,0,1-.429-8.035,8.433,8.433,0,0,0,0-8.035c-1.595-2.484-.767-3.956,1.38-6.5a5.95,5.95,0,0,0,1.288-5.735,4.876,4.876,0,0,0-3.742-3.067c-.306,0-.368,0-.521-1.012a6.9,6.9,0,0,0-4.2-5.183c-1.687-.675-1.993-1.073-1.993-2.668a12.751,12.751,0,0,0-.215-2.024,4.14,4.14,0,0,1,0-2.821l.8-1.533a46.736,46.736,0,0,0,4.416-10.458,13.465,13.465,0,0,1,3.895-7.728,15.03,15.03,0,0,0,3.373-4.815l.4-.8a68.36,68.36,0,0,0,2.852-6.348,58.278,58.278,0,0,1,3.067-6.777l.215-.368a19.872,19.872,0,0,0,3.741-11.776c0-.828.951-1.472,1.993-1.687,6.655-1.38,8.188-2.883,9.2-9.2a2.882,2.882,0,0,1,.153-.644c5.029,1.012,7.483-2.3,9.2-4.753a20.422,20.422,0,0,1,1.38-1.748,42.194,42.194,0,0,0,4.784-7.054,39.2,39.2,0,0,1,2.637-4.263,60.819,60.819,0,0,1,7.115-7.974c1.012-1.012,2.055-2.024,3.067-3.067l5.183-5.52a202.418,202.418,0,0,1,15.916-15.886l1.043-.889a101.473,101.473,0,0,1,17.481-13l1.288-.705a50.017,50.017,0,0,0,13.064-9.016l4.385-4.569c11.163-11.592,22.694-23.583,30.851-38.212,1.165-2.085,2.453-4.171,3.711-6.133a54.8,54.8,0,0,0,8.863-19.719,29.011,29.011,0,0,1,6.778-12.972,16.255,16.255,0,0,0,2.852-6.808,12.022,12.022,0,0,1,3.588-7.115,18.709,18.709,0,0,0,4.876-8.679,25.21,25.21,0,0,1,3.067-6.839c3.251-4.385,3.282-9.66,3.282-14.782v-4.692c0-1.625.215-1.319,1.257-1.717a3.644,3.644,0,0,1,.889,0,8.265,8.265,0,0,0,1.288,0h.307a3.067,3.067,0,0,0,2.331-.583,2.7,2.7,0,0,0,.89-1.963v-.276a3.343,3.343,0,0,0,.03-2.944ZM897.794,467.548Zm-21.8-112.488ZM802.02,757.507Zm-6.624-2.269ZM743.261,606.593Zm2.177,291ZM778.651,134.654Zm-2.177,1.2a16.07,16.07,0,0,0,.613,3.649l-.245-.215a3.9,3.9,0,0,0-1.441-3.067,5.827,5.827,0,0,1-2.361-3.741l.337.184Zm-3.067,505.214Zm-1.533-514.69ZM758.625,244.995Zm5.305,419.774ZM770.647,234.384ZM670,972.884ZM645,604.171ZM553.185,808.722ZM523.9,573.5Zm-3.741,240.8ZM470.261,696.878ZM443.151,208.96ZM415.55,68.657ZM431.129,85Zm-10.3-13.279Zm-2.576-23.215Zm0,20.7Zm7.973-53.944Zm1.5,67.468ZM421.285,47.1ZM422.45,46.393Zm3.833,35.083ZM388.747,272.013Zm7.176-7.176ZM370.346,467.241ZM371.849,286.058ZM370.346,451.662ZM327.5,36.825ZM326.952,37.469Zm-2.668,240.493ZM321,277.287ZM288.894,462ZM278.651,29.1ZM293.678,355.55ZM296.193,353.25ZM293.709,355.213Zm-.767.767ZM282.761,55.44ZM285.214,75.8Zm-42.106,19.29ZM240.041,95.951ZM239.458,368.4Zm-1.656.705ZM233.6,389.5ZM233.6,390.818Zm-24.074-66.272ZM206.46,384.807Zm13.187-275.546Zm-6.808-71.578ZM186.772,418.725ZM168.065,149.957ZM170.794,124.441ZM158.343,507.783Zm4.2-235.126ZM116.114,272.657ZM110.41,184.028ZM109.4,184.028ZM81.031,351.1ZM85.876,414.861ZM82.2,352.545ZM67.905,332.979ZM68.733,333.961Zm-12.88-11.5ZM22.763,324.7Zm.337-12.942.337.736-.705-.307a.951.951,0,0,1,.368-.46Z" transform="translate(0.004 0.012)" fill="#f8f8f8"/>
</svg>
