<svg id="Layer_1" data-name="Layer 1" xmlns="http://www.w3.org/2000/svg" width="181.259" height="39.912" viewBox="0 0 181.259 39.912">
  <g id="Layer_2" data-name="Layer 2">
    <g id="Layer_1-2" data-name="Layer 1-2">
      <g id="Group_3" data-name="Group 3">
        <path id="Path_4" data-name="Path 4" d="M362.747,60.3H357.37V43.552c2.38,0,4.82-.021,7.253.032.241,0,.571.429.692.709q5.242,12.769,10.445,25.558c.11.266.234.525.443,1,.635-1.362,1.231-2.529,1.734-3.735q4.7-11.247,9.353-22.515a1.37,1.37,0,0,1,1.543-1.029c2.128.064,4.235.021,6.448.021V83.245h-5.058V56.888l-.255-.067c-1.44,2.954-2.983,5.863-4.3,8.867-2.419,5.5-4.728,11.055-7.03,16.606a1.4,1.4,0,0,1-1.514,1.064c-2.3-.057-2.259-.032-3.192-2.071Q368.858,70.2,363.74,59.13a8.748,8.748,0,0,0-.986-1.805Z" transform="translate(-238.669 -43.446)"/>
        <path id="Path_5" data-name="Path 5" d="M40.764,55.369c-1.266,2.912-2.454,5.54-3.547,8.2q-3.887,9.417-7.672,18.862a1.293,1.293,0,0,1-1.454.979c-1.731-.067-3.465-.021-5.391-.021.323-.826.567-1.472.826-2.11q7.438-18.355,14.847-36.731a1.181,1.181,0,0,1,1.284-.9c2.692,0,2.66,0,3.657,2.561q6.9,17.734,13.833,35.468c.2.511.376,1.032.628,1.72-1.773,0-3.426.043-5.072-.043-.27,0-.589-.578-.745-.951Q46.609,69.5,41.292,56.578C41.165,56.269,41.026,55.968,40.764,55.369Z" transform="translate(-22.7 -43.512)"/>
        <path id="Path_6" data-name="Path 6" d="M197.1,43.685c1.8,0,3.5-.035,5.2.039.259,0,.6.479.734.8q5.32,13.042,10.6,26.1c.106.266.238.525.458,1.014,1.007-2.273,1.968-4.334,2.837-6.43q4.256-10.225,8.445-20.483A1.431,1.431,0,0,1,227,43.663c1.589.071,3.192.021,4.944.021-1.11,2.869-2.128,5.608-3.22,8.321q-6.164,15.34-12.35,30.673a1.044,1.044,0,0,1-1.156.752c-2.313,0-2.327.039-3.128-1.961q-7.3-18.316-14.584-36.624C197.37,44.49,197.263,44.153,197.1,43.685Z" transform="translate(-135.244 -43.518)"/>
        <path id="Path_7" data-name="Path 7" d="M289.606,71.214q3.674-8.835,7.356-17.667c1.245-2.979,2.543-5.934,3.756-8.924a1.313,1.313,0,0,1,1.49-.958c1.632.057,3.263,0,5.044,0-.872,2.174-1.688,4.235-2.518,6.285-4.359,10.761-8.761,21.508-13.045,32.3-.67,1.688-1.869.965-2.908,1.142s-1.007-.692-1.2-1.263Q284.173,71.8,280.8,61.418c-.046-.138-.078-.28-.163-.607,1.568-.2,3.086-.429,4.611-.546.213,0,.575.493.685.819,1,2.99,1.961,5.994,2.94,8.995.124.376.277.745.415,1.117Z" transform="translate(-189.154 -43.52)"/>
        <path id="Path_8" data-name="Path 8" d="M126,92.93h20.391v4.848h-15.5v17.351H126Z" transform="translate(-89.361 -75.313)"/>
        <path id="Path_9" data-name="Path 9" d="M130.612,48.064v8.824H125.49V44.06h24.374v4Z" transform="translate(-89.032 -43.776)"/>
        <path id="Path_10" data-name="Path 10" d="M492.8,140.45v5.161H470.3V140.45Z" transform="translate(-311.545 -105.979)"/>
        <path id="Path_11" data-name="Path 11" d="M470.12,94.979V89.85H492.6v5.129Z" transform="translate(-311.429 -73.325)"/>
        <path id="Path_12" data-name="Path 12" d="M470.07,48.073V43.26h22.508v4.813Z" transform="translate(-311.397 -43.26)"/>
        <path id="Path_13" data-name="Path 13" d="M357.66,108.5h5.253v16.493H357.66Z" transform="translate(-238.856 -85.361)"/>
      </g>
    </g>
  </g>
</svg>
